solid parity_overhang
  facet normal 0 0 -1
    outer loop
      vertex 0 0 0
      vertex 2 2 0
      vertex 2 0 0
    endloop
  endfacet
  facet normal 0 0 -1
    outer loop
      vertex 0 0 0
      vertex 0 2 0
      vertex 2 2 0
    endloop
  endfacet
  facet normal 0 0 1
    outer loop
      vertex 0 0 2
      vertex 2 0 2
      vertex 2 2 2
    endloop
  endfacet
  facet normal 0 0 1
    outer loop
      vertex 0 0 2
      vertex 2 2 2
      vertex 0 2 2
    endloop
  endfacet
  facet normal 0 -1 0
    outer loop
      vertex 0 0 0
      vertex 2 0 0
      vertex 2 0 2
    endloop
  endfacet
  facet normal 0 -1 0
    outer loop
      vertex 0 0 0
      vertex 2 0 2
      vertex 0 0 2
    endloop
  endfacet
  facet normal 1 0 0
    outer loop
      vertex 2 0 0
      vertex 2 2 0
      vertex 2 2 2
    endloop
  endfacet
  facet normal 1 0 0
    outer loop
      vertex 2 0 0
      vertex 2 2 2
      vertex 2 0 2
    endloop
  endfacet
  facet normal 0 1 0
    outer loop
      vertex 2 2 0
      vertex 0 2 0
      vertex 0 2 2
    endloop
  endfacet
  facet normal 0 1 0
    outer loop
      vertex 2 2 0
      vertex 0 2 2
      vertex 2 2 2
    endloop
  endfacet
  facet normal -1 0 0
    outer loop
      vertex 0 2 0
      vertex 0 0 0
      vertex 0 0 2
    endloop
  endfacet
  facet normal -1 0 0
    outer loop
      vertex 0 2 0
      vertex 0 0 2
      vertex 0 2 2
    endloop
  endfacet

  facet normal 0 0 -1
    outer loop
      vertex 5 5 5
      vertex 15 15 5
      vertex 15 5 5
    endloop
  endfacet
  facet normal 0 0 -1
    outer loop
      vertex 5 5 5
      vertex 5 15 5
      vertex 15 15 5
    endloop
  endfacet
  facet normal 0 0 1
    outer loop
      vertex 5 5 8
      vertex 15 5 8
      vertex 15 15 8
    endloop
  endfacet
  facet normal 0 0 1
    outer loop
      vertex 5 5 8
      vertex 15 15 8
      vertex 5 15 8
    endloop
  endfacet
  facet normal 0 -1 0
    outer loop
      vertex 5 5 5
      vertex 15 5 5
      vertex 15 5 8
    endloop
  endfacet
  facet normal 0 -1 0
    outer loop
      vertex 5 5 5
      vertex 15 5 8
      vertex 5 5 8
    endloop
  endfacet
  facet normal 1 0 0
    outer loop
      vertex 15 5 5
      vertex 15 15 5
      vertex 15 15 8
    endloop
  endfacet
  facet normal 1 0 0
    outer loop
      vertex 15 5 5
      vertex 15 15 8
      vertex 15 5 8
    endloop
  endfacet
  facet normal 0 1 0
    outer loop
      vertex 15 15 5
      vertex 5 15 5
      vertex 5 15 8
    endloop
  endfacet
  facet normal 0 1 0
    outer loop
      vertex 15 15 5
      vertex 5 15 8
      vertex 15 15 8
    endloop
  endfacet
  facet normal -1 0 0
    outer loop
      vertex 5 15 5
      vertex 5 5 5
      vertex 5 5 8
    endloop
  endfacet
  facet normal -1 0 0
    outer loop
      vertex 5 15 5
      vertex 5 5 8
      vertex 5 15 8
    endloop
  endfacet
endsolid parity_overhang
